<?xml version="1.0" encoding="UTF-8" standalone="no"?>
<!DOCTYPE svg PUBLIC "-//W3C//DTD SVG 1.1//EN"
 "http://www.w3.org/Graphics/SVG/1.1/DTD/svg11.dtd">
<!-- Generated by graphviz version 2.40.1 (20161225.0304)
 -->
<!-- Title: dependencies Pages: 1 -->
<svg width="504pt" height="211pt"
 viewBox="0.00 0.00 504.00 211.00" xmlns="http://www.w3.org/2000/svg" xmlns:xlink="http://www.w3.org/1999/xlink">
<g id="graph0" class="graph" transform="scale(1 1) rotate(0) translate(4 207)">
<title>dependencies</title>
<polygon fill="#ffffff" stroke="transparent" points="-4,4 -4,-207 500,-207 500,4 -4,4"/>
<text text-anchor="start" x="227.0091" y="-42.4" font-family="sans-serif" font-weight="bold" font-size="14.00" fill="#000000">Legend</text>
<polygon fill="#ffffb3" stroke="transparent" points="14,-10 14,-30 34,-30 34,-10 14,-10"/>
<text text-anchor="start" x="37.629" y="-15.4" font-family="sans-serif" font-size="14.00" fill="#000000"> &#160;Declarations</text>
<polygon fill="#8dd3c7" stroke="transparent" points="127,-10 127,-30 147,-30 147,-10 127,-10"/>
<text text-anchor="start" x="150.7251" y="-15.4" font-family="sans-serif" font-size="14.00" fill="#000000"> &#160;Module</text>
<polygon fill="#80b1d3" stroke="transparent" points="213,-10 213,-30 233,-30 233,-10 213,-10"/>
<text text-anchor="start" x="236.7812" y="-15.4" font-family="sans-serif" font-size="14.00" fill="#000000"> &#160;Bootstrap</text>
<polygon fill="#fdb462" stroke="transparent" points="310,-10 310,-30 330,-30 330,-10 310,-10"/>
<text text-anchor="start" x="333.6732" y="-15.4" font-family="sans-serif" font-size="14.00" fill="#000000"> &#160;Providers</text>
<polygon fill="#fb8072" stroke="transparent" points="406,-10 406,-30 426,-30 426,-10 406,-10"/>
<text text-anchor="start" x="429.7258" y="-15.4" font-family="sans-serif" font-size="14.00" fill="#000000"> &#160;Exports</text>
<g id="clust1" class="cluster">
<title>cluster_DlDateTimePickerDateModule</title>
<polygon fill="none" stroke="#000000" stroke-dasharray="1,5" points="137,-70 137,-195 359,-195 359,-70 137,-70"/>
</g>
<g id="clust4" class="cluster">
<title>cluster_DlDateTimePickerDateModule_exports</title>
<polygon fill="none" stroke="#000000" points="145,-135 145,-187 351,-187 351,-135 145,-135"/>
</g>
<!-- DlDateTimePickerComponent  -->
<g id="node1" class="node">
<title>DlDateTimePickerComponent </title>
<polygon fill="#fb8072" stroke="#000000" points="343.0679,-179 152.9321,-179 152.9321,-143 343.0679,-143 343.0679,-179"/>
<text text-anchor="middle" x="248" y="-156.8" font-family="Times,serif" font-size="14.00" fill="#000000">DlDateTimePickerComponent </text>
</g>
<!-- DlDateTimePickerDateModule -->
<g id="node2" class="node">
<title>DlDateTimePickerDateModule</title>
<polygon fill="#8dd3c7" stroke="#000000" points="343.7114,-114 340.7114,-118 319.7114,-118 316.7114,-114 152.2886,-114 152.2886,-78 343.7114,-78 343.7114,-114"/>
<text text-anchor="middle" x="248" y="-91.8" font-family="Times,serif" font-size="14.00" fill="#000000">DlDateTimePickerDateModule</text>
</g>
<!-- DlDateTimePickerDateModule&#45;&gt;DlDateTimePickerComponent  -->
<g id="edge1" class="edge">
<title>DlDateTimePickerDateModule&#45;&gt;DlDateTimePickerComponent </title>
<path fill="none" stroke="#000000" stroke-dasharray="5,2" d="M248,-114.1061C248,-114.1061 248,-132.991 248,-132.991"/>
<polygon fill="#000000" stroke="#000000" points="244.5001,-132.9909 248,-142.991 251.5001,-132.991 244.5001,-132.9909"/>
</g>
</g>
</svg>
